<?xml version="1.0" standalone="no"?>
<!DOCTYPE svg PUBLIC "-//W3C//DTD SVG 20010904//EN"
 "http://www.w3.org/TR/2001/REC-SVG-20010904/DTD/svg10.dtd">
<svg version="1.0" xmlns="http://www.w3.org/2000/svg"
 width="512.000000pt" height="512.000000pt" viewBox="0 0 512.000000 512.000000"
 preserveAspectRatio="xMidYMid meet">
<metadata>
Created by potrace 1.11, written by Peter Selinger 2001-2013
</metadata>
<g transform="translate(0.000000,512.000000) scale(0.100000,-0.100000)"
fill="#000000" stroke="none">
<path d="M725 5030 c-82 -7 -124 -28 -163 -84 l-27 -39 -3 -229 -3 -228 28 -1
c15 0 52 -1 81 -2 l52 -2 1 198 c1 108 2 203 3 210 1 9 344 13 1670 15 919 1
1674 -2 1678 -6 5 -5 8 -330 8 -723 l0 -714 81 81 81 81 0 649 c1 600 -1 652
-17 684 -24 49 -44 69 -88 92 -38 19 -72 19 -1675 21 -901 1 -1669 0 -1707 -3z"/>
<path d="M72 4366 c-92 -31 -94 -163 -3 -198 14 -5 234 -9 503 -8 427 0 481 2
504 16 46 31 61 79 39 129 -29 71 -14 69 -541 69 -261 1 -486 -3 -502 -8z"/>
<path d="M1548 4320 c-64 -6 -80 -17 -80 -55 0 -56 -52 -53 1104 -53 811 1
1072 3 1084 13 9 6 18 24 19 39 7 58 54 56 -1056 58 -558 2 -1040 1 -1071 -2z"/>
<path d="M535 4081 c-3 -2 -5 -177 -5 -388 l0 -383 80 0 80 0 0 78 c2 371 -1
686 -5 690 -7 7 -144 10 -150 3z"/>
<path d="M4845 4021 c-38 -10 -92 -37 -101 -52 -3 -6 61 -78 152 -169 169
-169 164 -167 198 -101 55 106 11 247 -94 301 -44 22 -112 32 -155 21z"/>
<path d="M4007 3232 l-667 -667 153 -152 c83 -84 155 -156 159 -159 5 -4 283
268 620 604 336 337 615 612 619 612 11 0 25 -52 21 -76 -1 -11 -178 -196
-391 -411 -406 -408 -398 -398 -377 -461 8 -24 42 -42 79 -42 28 0 799 767
830 825 28 53 28 154 1 207 -18 35 -357 388 -372 388 -4 0 -307 -300 -675
-668z"/>
<path d="M1562 3752 c-63 -3 -74 -6 -88 -27 -17 -27 -7 -58 24 -73 13 -6 2080
-9 2139 -3 21 2 42 31 38 53 -11 53 44 50 -1036 52 -552 0 -1037 0 -1077 -2z"/>
<path d="M62 3224 c-66 -28 -81 -124 -26 -175 l26 -24 485 -3 c524 -2 534 -1
562 51 27 52 12 118 -33 147 -28 19 -970 23 -1014 4z"/>
<path d="M1490 3176 c-28 -13 -31 -59 -5 -85 12 -12 58 -14 245 -13 174 0 229
-2 223 -11 -5 -9 -3 -9 8 -1 10 8 246 11 845 11 457 0 837 4 843 8 17 10 32
52 25 70 -3 8 -16 18 -27 22 -32 10 -2132 10 -2157 -1z"/>
<path d="M530 2560 l0 -386 80 -1 c68 -1 80 2 80 16 1 16 0 620 0 713 l0 47
-80 -1 -80 -2 0 -386z"/>
<path d="M1492 2609 c-22 -8 -26 -17 -22 -54 4 -46 -12 -45 850 -45 l816 0 47
48 c26 26 47 50 47 54 0 8 -1714 6 -1738 -3z"/>
<path d="M2760 1985 l-525 -525 155 -155 c85 -85 159 -155 165 -155 12 0 1046
1033 1042 1042 -2 7 -245 256 -288 295 l-25 22 -524 -524z"/>
<path d="M4050 1362 c0 -602 -3 -1099 -8 -1104 -4 -4 -759 -7 -1678 -6 l-1669
3 -2 190 c-2 105 -4 199 -5 209 -3 20 0 19 -123 17 l-35 -1 0 -214 c0 -230 4
-256 54 -309 58 -62 -64 -58 1792 -58 1660 0 1693 0 1731 19 44 23 64 43 88
91 16 32 17 108 17 1090 0 581 -1 1062 -1 1068 -1 7 -21 18 -46 24 -25 6 -60
25 -80 44 l-35 33 0 -1096z"/>
<path d="M48 2077 c-64 -43 -57 -151 11 -180 22 -9 150 -12 515 -12 l486 0 30
30 c53 53 44 131 -20 168 -24 14 -85 16 -508 16 l-480 0 -34 -22z"/>
<path d="M1479 2029 c-20 -20 -19 -51 3 -74 6 -6 202 -10 546 -11 l537 -1 55
53 55 54 -587 0 c-580 0 -588 0 -609 -21z"/>
<path d="M3590 2026 c-14 -12 -38 -37 -54 -54 l-29 -31 73 3 c58 1 75 6 86 21
18 24 18 35 -2 63 -19 28 -42 28 -74 -2z"/>
<path d="M530 1423 l0 -388 80 0 80 0 0 102 c0 57 0 191 0 298 0 107 0 236 0
285 l0 90 -80 0 -80 0 0 -387z"/>
<path d="M3155 1491 c-3 -6 -29 -9 -58 -9 -51 2 -54 0 -104 -53 l-51 -54 346
0 c234 0 353 4 366 12 24 13 28 52 8 76 -10 11 -30 17 -59 17 -33 0 -42 3 -37
13 6 9 4 9 -7 1 -17 -14 -402 -17 -393 -3 3 5 3 9 0 9 -3 0 -7 -4 -11 -9z"/>
<path d="M1508 1480 c-46 -11 -57 -79 -15 -97 12 -5 141 -9 287 -9 l265 1 28
53 28 52 -28 1 c-151 4 -547 3 -565 -1z"/>
<path d="M2133 1308 c-216 -426 -216 -426 -199 -453 9 -14 25 -25 37 -25 17 0
482 228 516 252 8 6 -38 58 -144 164 -85 84 -156 154 -159 154 -2 0 -25 -42
-51 -92z"/>
<path d="M132 960 c-68 -5 -76 -8 -103 -38 -33 -36 -36 -68 -14 -117 29 -60
20 -59 549 -59 539 0 522 -2 551 69 23 53 -1 116 -51 136 -27 10 -805 18 -932
9z"/>
<path d="M1483 894 c-23 -23 -22 -54 1 -73 7 -6 77 -11 157 -12 201 -2 191 -3
184 21 -4 11 -8 32 -10 48 -2 15 -4 29 -4 32 -1 3 -70 5 -154 5 -143 0 -153
-1 -174 -21z"/>
<path d="M2298 865 c-53 -27 -95 -51 -93 -53 2 -2 326 -4 720 -4 663 1 718 2
736 18 20 18 19 58 -1 78 -8 8 -203 11 -638 11 l-627 0 -97 -50z"/>
</g>
</svg>
